<svg fill="none" viewBox="0 0 48 48" xmlns="http://www.w3.org/2000/svg">
  <path d="M38 12H10C7.79086 12 6 13.7909 6 16V34C6 36.2091 7.79086 38 10 38H38C40.2091 38 42 36.2091 42 34V16C42 13.7909 40.2091 12 38 12Z" fill="rgba(22, 17, 34, 0.8)" stroke="#7847EA" strokeLinecap="round" strokeLinejoin="round" strokeWidth="3"></path>
  <path d="M14 25C15.6569 25 17 23.6569 17 22C17 20.3431 15.6569 19 14 19C12.3431 19 11 20.3431 11 22C11 23.6569 12.3431 25 14 25Z" fill="#7847EA"></path>
  <path d="M24 30C26.2091 30 28 28.2091 28 26C28 23.7909 26.2091 22 24 22C21.7909 22 20 23.7909 20 26C20 28.2091 21.7909 30 24 30Z" fill="#7847EA"></path>
  <path d="M34 21C35.6569 21 37 19.6569 37 18C37 16.3431 35.6569 15 34 15C32.3431 15 31 16.3431 31 18C31 19.6569 32.3431 21 34 21Z" fill="#7847EA"></path>
  <path d="M14 22L24 26L34 18" stroke="white" strokeLinecap="round" strokeLinejoin="round" strokeWidth="2"></path>
</svg>
